# AST/ASF file generated using VICON BodyLanguage
# -----------------------------------------------
:version 1.10
:name VICON
:units
  mass 1.0
  length 0.45
  angle deg
:documentation
   .ast/.asf automatically generated from VICON data using
   VICON BodyBuilder and BodyLanguage model FoxedUp or BRILLIANT.MOD
:root
   order TX TY TZ RX RY RZ
   axis XYZ
   position 0 0 0  
   orientation 0 0 0 
:bonedata
  begin
     id 1 
     name lhipjoint
     direction 0.61886 -0.69539 0.365302 
     length 2.20474 
     axis 0 0 0  XYZ
  end
  begin
     id 2 
     name lfemur
     direction 0.34202 -0.939693 0  
     length 6.65149  
     axis 0 0 20  XYZ
    dof rx ry rz
    limits (-160.0 20.0)
           (-70.0 70.0)
           (-60.0 70.0)
  end
  begin
     id 3 
     name ltibia
     direction 0.34202 -0.939693 0   
     length 6.35814   
     axis 0 0 20   XYZ
    dof rx
    limits (-10.0 170.0)
  end
  begin
     id 4 
     name lfoot
     direction 0.101224 -0.278109 0.955201   
     length 2.18766   
     axis -90 7.62852e-016 20   XYZ
    dof rx rz
    limits (-45.0 90.0)
           (-70.0 20.0)
  end
  begin
     id 5 
     name ltoes
     direction 1.53524e-011 -4.21877e-011 1   
     length 1.09206   
     axis -90 7.62852e-016 20   XYZ
    dof rx
    limits (-90.0 20.0)
  end
  begin
     id 6 
     name rhipjoint
     direction -0.600207 -0.708087 0.371972   
     length 2.1652  
     axis 0 0 0  XYZ 
  end
  begin
     id 7 
     name rfemur
     direction -0.34202 -0.939693 0   
     length 6.54691   
     axis 0 0 -20   XYZ
    dof rx ry rz
    limits (-160.0 20.0)
           (-70.0 70.0)
           (-70.0 60.0)
  end
  begin
     id 8 
     name rtibia
     direction -0.34202 -0.939693 0   
     length 6.37474   
     axis 0 0 -20   XYZ
    dof rx
    limits (-10.0 170.0)
 end
 begin
     id 9 
     name rfoot
     direction -0.111266 -0.3057 0.945604   
     length 2.00903  
     axis -90 -7.62852e-016 -20   XYZ
    dof rx rz
    limits (-45.0 90.0)
           (-20.0 70.0)
  end
  begin
     id 10 
     name rtoes
     direction -1.5362e-011 -4.21913e-011 1   
     length 1.00221   
     axis -90 -7.62852e-016 -20   XYZ
    dof rx
    limits (-90.0 20.0)
  end
  begin
     id 11 
     name lowerback
     direction -0.0224561 0.999731 -0.00577314   
     length 2.10409   
     axis 0 0 0   XYZ
    dof rx ry rz
    limits (-20.0 45.0)
           (-30.0 30.0)
           (-30.0 30.0)
  end
  begin
     id 12 
     name upperback
     direction 0.0213126 0.999185 -0.0342817   
     length 2.09783   
     axis 0 0 0   XYZ
    dof rx ry rz
    limits (-20.0 45.0)
           (-30.0 30.0)
           (-30.0 30.0)
  end
  begin
     id 13 
     name thorax
     direction 0.0312356 0.999036 -0.0308451   
     length 2.09788   
     axis 0 0 0   XYZ
    dof rx ry rz
    limits (-20.0 45.0)
           (-30.0 30.0)
           (-30.0 30.0)
  end
  begin
     id 14 
     name lowerneck
     direction -0.0114419 0.996481 0.0830329   
     length 1.38575   
     axis 0 0 0   XYZ
    dof rx ry rz
    limits (-20.0 45.0)
           (-30.0 30.0)
           (-30.0 30.0)
  end
  begin
     id 15 
     name upperneck
     direction -0.0075675 0.996187 -0.0869092   
     length 1.39401   
     axis 0 0 0   XYZ
    dof rx ry rz
    limits (-20.0 45.0)
           (-30.0 30.0)
           (-30.0 30.0)
  end
  begin
     id 16
     name head
     direction -0.00222073 0.999264 -0.0382974  
     length 1.3964  
     axis 0 0 0   XYZ
    dof rx ry rz
    limits (-20.0 45.0)
           (-30.0 30.0)
           (-30.0 30.0)
  end
  begin
     id 17 
     name lclavicle
     direction 0.965962 0.222138 0.132556  
     length 2.81514  
     axis 0 0 0   XYZ
    dof ry rz
    limits (-20.0 10.0)
           (0.0 20.0)
  end
  begin
     id 18 
     name lhumerus
     direction 1 -4.48972e-011 7.03471e-018   
     length 4.47366   
     axis 180 -30 -90   XYZ
    dof rx ry rz
    limits (-60.0 90.0)
           (-90.0 90.0)
           (-90.0 90.0)
  end
  begin
     id 19
     name lradius
     direction 1 -4.48951e-011 -6.22192e-028   
     length 3.19948   
     axis 180 -30 -90   XYZ
    dof rx
    limits (-10.0 170.0)
  end
  begin
     id 20
     name lwrist
     direction 1 -4.48967e-011 -1.24264e-027   
     length 1.59974   
     axis 1.40095e-015 90 90   XYZ
    dof ry
    limits (-180.0 0.0)
 end
  begin
     id 21 
     name lhand
     direction 1 -4.4897e-011 -2.48528e-027   
     length 0.492667   
     axis 1.58582e-015 90 90   XYZ
    dof rx rz
    limits (-90.0 90.0)
           (-45.0 45.0)
  end
  begin
     id 22 
     name lfingers
     direction 1 -4.48996e-011 -4.97056e-027   
     length 0.397201   
     axis 3.17164e-015 90 90   XYZ
    dof rx
    limits (0.0 90.0)
  end
  begin
     id 23
     name lthumb
     direction 0.707107 -6.34981e-011 0.707107   
     length 0.570303   
     axis -90 45 2.85299e-015   XYZ
    dof rx rz
    limits (-45.0 45.0)
           (-45.0 45.0)
  end
  begin
     id 24 
     name rclavicle
     direction -0.961164 0.229034 0.153972   
     length 3.09348  
     axis 0 0 0   XYZ 
    dof ry rz
    limits (-10.0 20.0)
           (-20.0 0.0)
  end
  begin
     id 25 
     name rhumerus
     direction -1 -4.48971e-011 -9.06263e-028  
     length 4.3269   
     axis 180 30 90   XYZ
    dof rx ry rz
    limits (-90.0 60.0)
           (-90.0 90.0)
           (-90.0 90.0)
  end
  begin
     id 26 
     name rradius
     direction -1 -4.48953e-011 1.44659e-027   
     length 3.1896   
     axis 180 30 90   XYZ
    dof rx
    limits (-10.0 170.0)
  end
  begin
     id 27 
     name rwrist
     direction -1 -4.48988e-011 -1.24264e-027   
     length 1.5948   
     axis 1.40095e-015 -90 -90   XYZ
    dof ry
    limits (-180.0 0.0)
  end
  begin
     id 28
     name rhand
     direction -1 -4.49033e-011 -2.48528e-027   
     length 0.464496   
     axis 1.58582e-015 -90 -90   XYZ
    dof rx rz
    limits (-90.0 90.0)
           (-45.0 45.0)
  end
  begin
     id 29
     name rfingers
     direction -1 -4.48905e-011 -4.97056e-027   
     length 0.374489   
     axis 3.17164e-015 -90 -90   XYZ
    dof rx
    limits (0.0 90.0)
  end
  begin
     id 30
     name rthumb
     direction -0.707107 -6.34909e-011 0.707107   
     length 0.537693   
     axis -90 -45 -2.85299e-015   XYZ
    dof rx rz
    limits (-45.0 45.0)
           (-45.0 45.0)
  end
:hierarchy
  begin
    root lhipjoint rhipjoint lowerback
    lhipjoint lfemur
    lfemur ltibia
    ltibia lfoot
    lfoot ltoes
    rhipjoint rfemur
    rfemur rtibia
    rtibia rfoot
    rfoot rtoes
    lowerback upperback
    upperback thorax
    thorax lowerneck lclavicle rclavicle
    lowerneck upperneck
    upperneck head
    lclavicle lhumerus
    lhumerus lradius
    lradius lwrist
    lwrist lhand lthumb
    lhand lfingers
    rclavicle rhumerus
    rhumerus rradius
    rradius rwrist
    rwrist rhand rthumb
    rhand rfingers
  end

#!OML:ASF G:\acrobat\cartwheel_test 2\Patient 1\Session 2\acrobat4.ASF
:FULLY-SPECIFIED
:DEGREES
241
root 4.72202 15.4027 23.3063 -170.484 -2.62929 -173.956
lowerback 7.75222 2.18159 -3.3171
upperback 2.01473 2.41024 -1.671
thorax -2.32739 1.13275 -0.0935178
lowerneck -6.23528 -8.89366 -6.10026
upperneck -3.00083 -11.7134 7.25847
head 0.964756 -5.87951 2.97425
rclavicle -9.93923e-015 6.36111e-015
rhumerus -33.5859 16.7778 -88.1601
rradius 91.6109
rwrist 6.776
rhand -14.7365 -18.7294
rfingers 7.12502
rthumb 11.4189 -408.398
lclavicle -9.93923e-015 6.36111e-015
lhumerus -45.3869 -12.6878 78.0275
lradius 118.017
lwrist 16.8332
lhand -41.0463 -4.86671
lfingers 7.12502
lthumb -13.9762 24.6435
rfemur -17.3913 -24.3724 24.197
rtibia 60.5556
rfoot 13.4342 3.89445
rtoes -16.2735
lfemur -24.0255 7.76197 -20.9851
ltibia 40.8925
lfoot -212.33 206.998
ltoes -4.56242
242
root 4.70584 15.4306 23.3787 -170.564 -1.58622 -173.75
lowerback 7.91485 2.49089 -2.9124
upperback 1.66683 2.83268 -2.01353
thorax -2.75026 1.3493 -0.73108
lowerneck -5.34006 -9.1151 -4.62039
upperneck -3.54686 -12.1229 7.20889
head 0.557798 -6.12259 2.74229
rclavicle 6.75868e-015 4.29375e-014
rhumerus -34.7452 14.5181 -88.1677
rradius 91.244
rwrist 7.28523
rhand -14.8235 -18.9355
rfingers 7.12502
rthumb 11.3349 -408.609
lclavicle 6.75868e-015 4.29375e-014
lhumerus -45.2591 -14.2369 77.3426
lradius 118.006
lwrist 16.9586
lhand -41.0369 -4.95508
lfingers 7.12502
lthumb -13.9672 24.5557
rfemur -17.7933 -23.5923 24.1665
rtibia 60.6293
rfoot 12.4327 3.38023
rtoes -19.9605
lfemur -23.9602 7.75206 -20.8777
ltibia 40.6954
lfoot -212.847 207.563
ltoes -4.24628
243
root 4.69012 15.452 23.4487 -170.521 -0.535451 -173.596
lowerback 7.68734 1.8642 -3.46768
upperback 2.02753 2.00939 -1.15491
thorax -2.29183 0.940072 0.564487
lowerneck -7.43458 -8.64682 -6.08762
upperneck -3.06346 -11.3806 7.32425
head 1.13278 -5.71707 2.95835
rclavicle 2.78299e-015 6.36111e-015
rhumerus -33.6731 16.0588 -86.7396
rradius 90.3295
rwrist 7.45822
rhand -14.8872 -19.0449
rfingers 7.12502
rthumb 11.2736 -408.722
lclavicle 2.78299e-015 6.36111e-015
lhumerus -44.8627 -11.5727 77.5665
lradius 117.937
lwrist 16.5638
lhand -40.9111 -4.9471
lfingers 7.12502
lthumb -13.8459 24.572
rfemur -18.1958 -22.989 24.1369
rtibia 60.635
rfoot 11.9861 3.11875
rtoes -19.9032
lfemur -23.9852 7.71084 -20.8347
ltibia 40.439
lfoot -213.401 208.132
ltoes -3.94428
244
root 4.67348 15.4694 23.516 -170.459 0.139969 -173.455
lowerback 7.60212 1.42907 -3.47359
upperback 1.87664 1.75826 -0.973266
thorax -2.38919 0.955436 0.774551
lowerneck -7.0463 -8.49974 -5.79402
upperneck -3.45981 -11.2255 7.31769
head 0.906259 -5.6585 2.9403
rclavicle -1.07344e-014 4.6118e-014
rhumerus -34.0721 15.243 -86.132
rradius 89.7162
rwrist 8.35311
rhand -15.3278 -18.9736
rfingers 7.12502
rthumb 10.8486 -408.673
lclavicle -1.07344e-014 4.6118e-014
lhumerus -44.7713 -11.2172 77.264
lradius 117.872
lwrist 16.7137
lhand -41.0392 -4.72393
lfingers 7.12502
lthumb -13.9694 24.7867
rfemur -18.4439 -22.9106 24.1649
rtibia 60.5367
rfoot 12.2739 3.44243
rtoes -17.7966
lfemur -24.0699 7.65508 -20.7704
ltibia 40.2024
lfoot -213.65 208.478
ltoes -3.81753
245
root 4.66224 15.4881 23.5793 -170.341 1.06207 -173.196
lowerback 7.46 1.25657 -3.47589
upperback 1.84809 1.52681 -0.722031
thorax -2.33768 0.834272 1.06078
lowerneck -7.17996 -8.33144 -5.69514
upperneck -3.71366 -11.0225 7.44413
head 0.835866 -5.56967 2.97583
rclavicle 2.18663e-014 1.11319e-014
rhumerus -34.1276 14.6234 -85.3688
rradius 89.1277
rwrist 9.17264
rhand -15.8055 -18.9095
rfingers 7.12502
rthumb 10.3878 -408.633
lclavicle 2.18663e-014 1.11319e-014
lhumerus -44.4055 -10.6874 76.8647
lradius 117.773
lwrist 17.0202
lhand -41.4966 -4.53989
lfingers 7.12502
lthumb -14.4102 24.9399
rfemur -18.6507 -22.6331 24.3308
rtibia 60.3275
rfoot 13.5085 4.09403
rtoes -11.7162
lfemur -24.1942 7.78626 -20.5569
ltibia 40.0691
lfoot -213.77 208.821
ltoes -4.48078
246
root 4.65843 15.5072 23.6411 -170.073 2.49153 -172.828
lowerback 7.21067 1.26942 -3.5709
upperback 1.79319 1.53774 -0.498478
thorax -2.26501 0.833868 1.3486
lowerneck -7.61899 -8.15228 -5.56367
upperneck -3.69782 -10.8014 7.56791
head 0.902207 -5.46275 2.98625
rclavicle 7.55382e-015 4.13472e-014
rhumerus -34.1389 13.9915 -84.6531
rradius 88.5605
rwrist 9.52154
rhand -15.3402 -19.4784
rfingers 7.12502
rthumb 10.8366 -409.179
lclavicle 7.55382e-015 4.13472e-014
lhumerus -44.1131 -10.2766 76.1409
lradius 117.826
lwrist 17.3766
lhand -41.4467 -4.22891
lfingers 7.12502
lthumb -14.3621 25.2543
rfemur -18.9483 -21.9197 24.5952
rtibia 60.0412
rfoot 12.9903 4.23879
rtoes -12.3791
lfemur -24.4001 8.27375 -20.2016
ltibia 40.0132
lfoot -214.14 208.843
ltoes -4.80424
247
root 4.64923 15.5227 23.7013 -169.839 3.38062 -172.547
lowerback 7.11396 1.1094 -3.45766
upperback 1.65165 1.32207 -0.359688
thorax -2.34785 0.722493 1.44869
lowerneck -7.87592 -8.43609 -5.11964
upperneck -3.53524 -10.5279 7.51482
head 0.957532 -4.96969 2.89395
rclavicle -7.95139e-016 1.59028e-015
rhumerus -34.4279 13.1779 -84.1187
rradius 88.1186
rwrist 9.39402
rhand -16.2754 -18.6868
rfingers 7.12502
rthumb 9.93445 -408.432
lclavicle -7.95139e-016 1.59028e-015
lhumerus -44.0197 -10.0632 75.2076
lradius 117.953
lwrist 17.823
lhand -41.2016 -4.00475
lfingers 7.12502
lthumb -14.1259 25.4951
rfemur -19.0656 -21.7809 24.7514
rtibia 59.689
rfoot 12.4091 4.53785
rtoes -11.6629
lfemur -24.5837 8.528 -19.805
ltibia 40.0004
lfoot -214.713 207.966
ltoes -4.33154
248
root 4.63446 15.5346 23.7575 -169.677 4.15273 -172.319
lowerback 7.06788 0.903512 -3.21276
upperback 1.51678 1.05474 -0.263973
thorax -2.44587 0.585691 1.43432
lowerneck -7.8762 -8.22378 -4.63038
upperneck -3.55958 -10.2806 7.2821
head 0.888437 -4.85691 2.74482
rclavicle 1.23246e-014 4.77083e-015
rhumerus -34.8269 12.2617 -83.6255
rradius 87.8793
rwrist 8.94269
rhand -15.8819 -18.7662
rfingers 7.12502
rthumb 10.3141 -408.493
lclavicle 1.23246e-014 4.77083e-015
lhumerus -43.6734 -9.85469 74.409
lradius 117.72
lwrist 18.0282
lhand -41.2782 -3.70019
lfingers 7.12502
lthumb -14.1997 25.7945
rfemur -18.9758 -21.8371 24.7432
rtibia 59.2638
rfoot 11.7104 5.21214
rtoes -9.62895
lfemur -24.656 8.59241 -19.4185
ltibia 40.0352
lfoot -215.041 207.075
ltoes -4.77815
249
root 4.61705 15.5508 23.8046 -169.501 5.48436 -172.11
lowerback 6.88367 0.838803 -3.06455
upperback 1.49642 0.98158 -0.168453
thorax -2.36021 0.54468 1.45896
lowerneck -8.20023 -7.95718 -4.2114
upperneck -3.4818 -9.94432 6.96262
head 0.903628 -4.69073 2.57017
rclavicle 1.35174e-014 4.45278e-014
rhumerus -34.9438 11.5449 -83.0551
rradius 87.6178
rwrist 8.33064
rhand -15.7837 -18.8916
rfingers 7.12502
rthumb 10.4088 -408.614
lclavicle 1.35174e-014 4.45278e-014
lhumerus -43.1116 -9.41705 73.6876
lradius 117.296
lwrist 17.8618
lhand -41.1563 -3.43078
lfingers 7.12502
lthumb -14.0823 26.0721
rfemur -18.8276 -21.4233 24.5162
rtibia 58.763
rfoot 10.8683 6.49206
rtoes -7.7817
lfemur -24.5858 8.7665 -19.0872
ltibia 40.0993
lfoot -215.05 206.667
ltoes -6.42048
250
root 4.60046 15.5711 23.8476 -169.275 6.93812 -171.913
lowerback 6.66139 0.781064 -2.90865
upperback 1.47015 0.918149 -0.0899899
thorax -2.25956 0.508316 1.46082
lowerneck -8.60969 -7.63749 -3.87996
upperneck -3.29639 -9.53848 6.65445
head 0.972935 -4.48828 2.4143
rclavicle -3.06128e-014 6.36111e-015
rhumerus -34.9801 10.9996 -82.5392
rradius 87.2771
rwrist 7.68255
rhand -16.2793 -18.7163
rfingers 7.12502
rthumb 9.93072 -408.462
lclavicle -3.06128e-014 6.36111e-015
lhumerus -42.7127 -8.93925 72.8142
lradius 117.026
lwrist 17.7266
lhand -40.9255 -3.46214
lfingers 7.12502
lthumb -13.8599 26.056
rfemur -18.6438 -20.7957 24.1619
rtibia 58.208
rfoot 9.52908 7.8605
rtoes -9.36912
lfemur -24.4662 8.84356 -18.6976
ltibia 40.1736
lfoot -214.917 206.019
ltoes -7.93134
251
root 4.58708 15.5846 23.8896 -169.068 8.41569 -171.707
lowerback 6.5068 0.748354 -2.75708
upperback 1.33466 0.878655 -0.0219317
thorax -2.31047 0.485273 1.45028
lowerneck -8.594 -7.27613 -3.61833
upperneck -3.17084 -9.09473 6.41812
head 0.958997 -4.27964 2.31234
rclavicle 2.26615e-014 -7.95139e-015
rhumerus -35.3062 10.4981 -82.1041
rradius 87.0795
rwrist 7.03742
rhand -16.1967 -18.9393
rfingers 7.12502
rthumb 10.0104 -408.681
lclavicle 2.26615e-014 -7.95139e-015
lhumerus -42.5139 -8.63973 71.9492
lradius 116.813
lwrist 17.7407
lhand -40.9544 -3.6294
lfingers 7.12502
lthumb -13.8877 25.8869
rfemur -18.3349 -20.0599 23.6737
rtibia 57.6263
rfoot 8.5094 9.40104
rtoes -9.62377
lfemur -24.2549 8.85729 -18.2126
ltibia 40.2445
lfoot -214.789 204.992
ltoes -8.76285
252
root 4.57026 15.5842 23.9276 -168.863 10.0416 -171.619
lowerback 6.32446 0.73719 -2.74995
upperback 1.0113 0.849541 0.0864317
thorax -2.54285 0.469462 1.56045
lowerneck -7.79767 -6.84262 -3.55131
upperneck -3.20452 -8.5719 6.20636
head 0.770379 -4.05413 2.28227
rclavicle -3.33958e-014 -1.90833e-014
rhumerus -35.9518 10.214 -81.6558
rradius 86.8986
rwrist 6.7377
rhand -16.1357 -19.3308
rfingers 7.12502
rthumb 10.0693 -409.07
lclavicle -3.33958e-014 -1.90833e-014
lhumerus -42.8457 -8.29483 71.4188
lradius 116.708
lwrist 17.6653
lhand -40.9829 -3.85746
lfingers 7.12502
lthumb -13.9151 25.6569
rfemur -18.0007 -19.288 22.8883
rtibia 57.0099
rfoot 7.22972 11.5562
rtoes -9.35753
lfemur -24.0523 8.93296 -17.9307
ltibia 40.3497
lfoot -214.298 204.61
ltoes -10.7782
253
root 4.55111 15.5808 23.9601 -168.649 11.8829 -171.675
lowerback 6.02603 0.712681 -2.5507
upperback 1.00943 0.833025 -0.0346118
thorax -2.37281 0.455864 1.32871
lowerneck -8.42045 -6.41951 -3.31148
upperneck -2.8523 -8.02504 5.98033
head 0.939644 -3.77463 2.16754
rclavicle -1.35174e-014 2.8625e-014
rhumerus -35.6152 9.73042 -81.3397
rradius 86.4493
rwrist 6.90278
rhand -16.5966 -19.5681
rfingers 7.12502
rthumb 9.6246 -409.328
lclavicle -1.35174e-014 2.8625e-014
lhumerus -42.4744 -7.70364 70.5126
lradius 116.611
lwrist 17.6705
lhand -40.7978 -3.78408
lfingers 7.12502
lthumb -13.7368 25.7425
rfemur -17.6933 -18.4669 21.8276
rtibia 56.4141
rfoot 5.28403 13.9562
rtoes -8.98678
lfemur -23.8405 8.80371 -17.9167
ltibia 40.4383
lfoot -213.642 205.247
ltoes -14.0967
254
root 4.53176 15.5832 23.9885 -168.521 13.7227 -171.699
lowerback 5.78971 0.745366 -2.49272
upperback 1.01189 0.885366 0.0283628
thorax -2.24067 0.478723 1.35976
lowerneck -8.78883 -5.97623 -3.06122
upperneck -2.69407 -7.45125 5.49565
head 0.991251 -3.49366 1.98073
rclavicle -5.96354e-015 3.65764e-014
rhumerus -35.2871 9.33271 -80.6486
rradius 86.1107
rwrist 7.15295
rhand -16.8283 -19.6556
rfingers 7.12502
rthumb 9.401 -409.426
lclavicle -5.96354e-015 3.65764e-014
lhumerus -42.185 -7.16372 69.939
lradius 116.587
lwrist 17.9051
lhand -40.6346 -3.78954
lfingers 7.12502
lthumb -13.5795 25.7476
rfemur -17.2209 -17.7662 20.7868
rtibia 55.731
rfoot 2.74952 15.7886
rtoes -8.05496
lfemur -23.4691 7.77657 -17.78
ltibia 40.5742
lfoot -214.989 205.069
ltoes -12.8016
